<svg aria-hidden="true" style="position:absolute;width:0;height:0;overflow:hidden" xmlns="http://www.w3.org/2000/svg">
  <defs>
    <symbol id="icon-vector" viewBox="0 0 32 32">
      <path fill="#f4f4fd" style="fill:var(--color1, #f4f4fd)" d="M27.026 4.016a2.936 2.936 0 0 1 4.092.031 2.967 2.967 0 0 1 .108 4.112L15.563 27.853a2.923 2.923 0 0 1-2.103.945 2.926 2.926 0 0 1-2.136-.866L.937 17.489a2.966 2.966 0 0 1-.722-3.274 2.947 2.947 0 0 1 2.782-1.851 2.926 2.926 0 0 1 2.102.942l8.22 8.26L26.952 4.102c.025-.03.051-.059.078-.087h-.004z"/>
    </symbol>
  </defs>
</svg>
